<svg xmlns="http://www.w3.org/2000/svg" width="14" height="16" viewBox="0 0 14 16" fill="none"><path d="M5.80325 10.1818L0.850894 15.1469C0.536534 15.4621 0.759758 16 1.2049 16H6.62644C6.76289 16 6.8934 15.9442 6.98773 15.8456L12.3684 10.2216C12.3937 10.1952 12.4165 10.1654 12.4352 10.134C13.4261 8.47651 13.3804 7.54441 12.4347 5.94647C12.4162 5.91525 12.3939 5.88568 12.369 5.85929L6.98806 0.156847C6.8936 0.0567389 6.76204 0 6.6244 0H1.19326C0.749778 0 0.525813 0.534505 0.836828 0.85065L5.80325 5.89899C7.57741 7.57778 7.60878 8.50246 5.80325 10.1818Z" fill="#F4F7FF"></path></svg>